<svg width="88" height="100" viewBox="0 0 88 100" fill="none" xmlns="http://www.w3.org/2000/svg">
<path d="M58.05 47.5C58.05 50.55 55.8 53.05 52.95 53.05C50.15 53.05 47.85 50.55 47.85 47.5C47.85 44.45 50.1 41.95 52.95 41.95C55.8 41.95 58.05 44.45 58.05 47.5ZM34.7 41.95C31.85 41.95 29.6 44.45 29.6 47.5C29.6 50.55 31.9 53.05 34.7 53.05C37.55 53.05 39.8 50.55 39.8 47.5C39.85 44.45 37.55 41.95 34.7 41.95ZM87.5 10.3V100C74.9035 88.8684 78.932 92.5531 64.3 78.95L66.95 88.2H10.25C4.6 88.2 0 83.6 0 77.9V10.3C0 4.6 4.6 0 10.25 0H77.25C82.9 0 87.5 4.6 87.5 10.3ZM73.25 57.7C73.25 41.6 66.05 28.55 66.05 28.55C58.85 23.15 52 23.3 52 23.3L51.3 24.1C59.8 26.7 63.75 30.45 63.75 30.45C51.8729 23.9404 37.9211 23.9393 26.4 29C24.55 29.85 23.45 30.45 23.45 30.45C23.45 30.45 27.6 26.5 36.6 23.9L36.1 23.3C36.1 23.3 29.25 23.15 22.05 28.55C22.05 28.55 14.85 41.6 14.85 57.7C14.85 57.7 19.05 64.95 30.1 65.3C30.1 65.3 31.95 63.05 33.45 61.15C27.1 59.25 24.7 55.25 24.7 55.25C25.4355 55.7648 26.6484 56.4322 26.75 56.5C35.1895 61.2262 47.1773 62.7746 57.95 58.25C59.7 57.6 61.65 56.65 63.7 55.3C63.7 55.3 61.2 59.4 54.65 61.25C56.15 63.15 57.95 65.3 57.95 65.3C69 64.95 73.25 57.7 73.25 57.7V57.7Z" fill="#5878BC"/>
</svg>
