<svg width="97" height="95" viewBox="0 0 97 95" fill="none" xmlns="http://www.w3.org/2000/svg">
<path d="M32.4023 76.0547C32.4023 76.4453 31.9531 76.7578 31.3867 76.7578C30.7422 76.8164 30.293 76.5039 30.293 76.0547C30.293 75.6641 30.7422 75.3516 31.3086 75.3516C31.8945 75.293 32.4023 75.6055 32.4023 76.0547ZM26.3281 75.1758C26.1914 75.5664 26.582 76.0156 27.168 76.1328C27.6758 76.3281 28.2617 76.1328 28.3789 75.7422C28.4961 75.3516 28.125 74.9023 27.5391 74.7266C27.0313 74.5898 26.4648 74.7852 26.3281 75.1758ZM34.9609 74.8438C34.3945 74.9805 34.0039 75.3516 34.0625 75.8008C34.1211 76.1914 34.6289 76.4453 35.2148 76.3086C35.7813 76.1719 36.1719 75.8008 36.1133 75.4102C36.0547 75.0391 35.5273 74.7852 34.9609 74.8438ZM47.8125 0C20.7227 0 0 20.5664 0 47.6562C0 69.3164 13.6328 87.8516 33.1055 94.375C35.6055 94.8242 36.4844 93.2813 36.4844 92.0117C36.4844 90.8008 36.4258 84.1211 36.4258 80.0195C36.4258 80.0195 22.7539 82.9492 19.8828 74.1992C19.8828 74.1992 17.6562 68.5156 14.4531 67.0508C14.4531 67.0508 9.98047 63.9844 14.7656 64.043C14.7656 64.043 19.6289 64.4336 22.3047 69.082C26.582 76.6211 33.75 74.4531 36.543 73.1641C36.9922 70.0391 38.2617 67.8711 39.668 66.582C28.75 65.3711 17.7344 63.7891 17.7344 45C17.7344 39.6289 19.2188 36.9336 22.3438 33.4961C21.8359 32.2266 20.1758 26.9922 22.8516 20.2344C26.9336 18.9648 36.3281 25.5078 36.3281 25.5078C40.2344 24.4141 44.4336 23.8477 48.5938 23.8477C52.7539 23.8477 56.9531 24.4141 60.8594 25.5078C60.8594 25.5078 70.2539 18.9453 74.3359 20.2344C77.0117 27.0117 75.3516 32.2266 74.8438 33.4961C77.9688 36.9531 79.8828 39.6484 79.8828 45C79.8828 63.8477 68.3789 65.3516 57.4609 66.582C59.2578 68.125 60.7813 71.0547 60.7813 75.6445C60.7813 82.2266 60.7227 90.3711 60.7227 91.9727C60.7227 93.2422 61.6211 94.7852 64.1016 94.3359C83.6328 87.8516 96.875 69.3164 96.875 47.6562C96.875 20.5664 74.9023 0 47.8125 0ZM18.9844 67.3633C18.7305 67.5586 18.7891 68.0078 19.1211 68.3789C19.4336 68.6914 19.8828 68.8281 20.1367 68.5742C20.3906 68.3789 20.332 67.9297 20 67.5586C19.6875 67.2461 19.2383 67.1094 18.9844 67.3633ZM16.875 65.7812C16.7383 66.0352 16.9336 66.3477 17.3242 66.543C17.6367 66.7383 18.0273 66.6797 18.1641 66.4062C18.3008 66.1523 18.1055 65.8398 17.7148 65.6445C17.3242 65.5273 17.0117 65.5859 16.875 65.7812ZM23.2031 72.7344C22.8906 72.9883 23.0078 73.5742 23.457 73.9453C23.9062 74.3945 24.4727 74.4531 24.7266 74.1406C24.9805 73.8867 24.8633 73.3008 24.4727 72.9297C24.043 72.4805 23.457 72.4219 23.2031 72.7344ZM20.9766 69.8633C20.6641 70.0586 20.6641 70.5664 20.9766 71.0156C21.2891 71.4648 21.8164 71.6602 22.0703 71.4648C22.3828 71.2109 22.3828 70.7031 22.0703 70.2539C21.7969 69.8047 21.2891 69.6094 20.9766 69.8633Z" fill="#5878BC"/>
</svg>
