<svg width="97" height="97" viewBox="0 0 97 97" fill="none" xmlns="http://www.w3.org/2000/svg">
<path d="M48.4375 0C21.6797 0 0 21.6797 0 48.4375C0 75.1953 21.6797 96.875 48.4375 96.875C75.1953 96.875 96.875 75.1953 96.875 48.4375C96.875 21.6797 75.1953 0 48.4375 0ZM72.2266 33.1836L64.2773 70.6445C63.6914 73.3008 62.1094 73.9453 59.9023 72.6953L47.793 63.7695L41.9531 69.3945C41.3086 70.0391 40.7617 70.5859 39.5117 70.5859L40.3711 58.2617L62.8125 37.9883C63.7891 37.1289 62.5977 36.6406 61.3086 37.5L33.5742 54.9609L21.6211 51.2305C19.0234 50.4102 18.9648 48.6328 22.168 47.3828L68.8672 29.375C71.0352 28.5937 72.9297 29.9023 72.2266 33.1836V33.1836Z" fill="#5878BC"/>
</svg>
