<svg width="100" height="82" viewBox="0 0 100 82" fill="none" xmlns="http://www.w3.org/2000/svg">
<path d="M89.7207 20.241C89.7842 21.1293 89.7842 22.0178 89.7842 22.9061C89.7842 49.9998 69.1625 81.2182 31.4721 81.2182C19.8604 81.2182 9.07363 77.8551 0 72.0178C1.6498 72.208 3.23594 72.2715 4.94922 72.2715C14.5303 72.2715 23.3502 69.0355 30.3934 63.5152C21.3832 63.3248 13.8324 57.4238 11.2309 49.302C12.5 49.4922 13.7689 49.6191 15.1016 49.6191C16.9416 49.6191 18.7818 49.3652 20.4949 48.9213C11.1041 47.0176 4.06074 38.7689 4.06074 28.807V28.5533C6.78906 30.0762 9.96191 31.0279 13.3246 31.1547C7.8043 27.4744 4.1877 21.1928 4.1877 14.0861C4.1877 10.2791 5.20273 6.78926 6.97949 3.74355C17.0684 16.1801 32.2334 24.3018 49.2383 25.1902C48.9211 23.6674 48.7307 22.0813 48.7307 20.4949C48.7307 9.20039 57.8678 0 69.2256 0C75.1266 0 80.4564 2.47461 84.2002 6.47207C88.832 5.58379 93.2736 3.87051 97.2078 1.52285C95.6848 6.28184 92.4488 10.2793 88.1977 12.8172C92.3221 12.3732 96.3195 11.2309 99.9996 9.64473C97.2082 13.7055 93.7182 17.3221 89.7207 20.241V20.241Z" fill="#5878BC"/>
</svg>
